<svg width="1920" height="1080" viewBox="0 0 1920 1080" fill="none" xmlns="http://www.w3.org/2000/svg">
<g opacity="0.3" clip-path="url(#clip0_1405_4)">
<g filter="url(#filter0_f_1405_4)">
<path d="M1640 814C1968.06 814 2234 548.057 2234 220C2234 -108.057 1968.06 -374 1640 -374C1311.94 -374 1046 -108.057 1046 220C1046 548.057 1311.94 814 1640 814Z" fill="#6CB6FF"/>
<path d="M1346 560C1724.32 560 2031 253.315 2031 -125C2031 -503.315 1724.32 -810 1346 -810C967.685 -810 661 -503.315 661 -125C661 253.315 967.685 560 1346 560Z" fill="#6FAC6F"/>
<path d="M327.5 432C472.475 432 590 314.475 590 169.5C590 24.5252 472.475 -93 327.5 -93C182.525 -93 65 24.5252 65 169.5C65 314.475 182.525 432 327.5 432Z" fill="#6FAC6F"/>
<path d="M216 1006C299.395 1006 367 938.395 367 855C367 771.605 299.395 704 216 704C132.605 704 65 771.605 65 855C65 938.395 132.605 1006 216 1006Z" fill="#8DDB8C"/>
<path d="M1656 974C1759.28 974 1843 890.277 1843 787C1843 683.723 1759.28 600 1656 600C1552.72 600 1469 683.723 1469 787C1469 890.277 1552.72 974 1656 974Z" fill="#8DDB8C"/>
<path d="M547 1006C653.039 1006 739 920.039 739 814C739 707.961 653.039 622 547 622C440.961 622 355 707.961 355 814C355 920.039 440.961 1006 547 1006Z" fill="#6CB6FF"/>
</g>
</g>
<g filter="url(#filter1_b_1405_4)">
<rect width="1920" height="1080" fill="white" fill-opacity="0.25"/>
</g>
<defs>
<filter id="filter0_f_1405_4" x="-175" y="-1050" width="2649" height="2296" filterUnits="userSpaceOnUse" color-interpolation-filters="sRGB">
<feFlood flood-opacity="0" result="BackgroundImageFix"/>
<feBlend mode="normal" in="SourceGraphic" in2="BackgroundImageFix" result="shape"/>
<feGaussianBlur stdDeviation="120" result="effect1_foregroundBlur_1405_4"/>
</filter>
<filter id="filter1_b_1405_4" x="-42" y="-42" width="2004" height="1164" filterUnits="userSpaceOnUse" color-interpolation-filters="sRGB">
<feFlood flood-opacity="0" result="BackgroundImageFix"/>
<feGaussianBlur in="BackgroundImageFix" stdDeviation="21"/>
<feComposite in2="SourceAlpha" operator="in" result="effect1_backgroundBlur_1405_4"/>
<feBlend mode="normal" in="SourceGraphic" in2="effect1_backgroundBlur_1405_4" result="shape"/>
</filter>
<clipPath id="clip0_1405_4">
<rect width="1920" height="1080" fill="white"/>
</clipPath>
</defs>
</svg>
