<svg width="1794" height="1794" viewBox="0 0 1794 1794" fill="none" xmlns="http://www.w3.org/2000/svg">
<path d="M1 1665L1793 1665" stroke="#E7E8EE"/>
<path d="M1 897L1793 897" stroke="#E7E8EE"/>
<path d="M1 129L1793 129" stroke="#E7E8EE"/>
<path d="M1 1281L1793 1281" stroke="#E7E8EE"/>
<path d="M1 513L1793 513" stroke="#E7E8EE"/>
<path d="M1 1473L1793 1473" stroke="#E7E8EE"/>
<path d="M1 705L1793 705" stroke="#E7E8EE"/>
<path d="M1 1089L1793 1089" stroke="#E7E8EE"/>
<path d="M1 321L1793 321" stroke="#E7E8EE"/>
<path d="M1 1729L1793 1729" stroke="#E7E8EE"/>
<path d="M1 961L1793 961" stroke="#E7E8EE"/>
<path d="M1 193L1793 193" stroke="#E7E8EE"/>
<path d="M1 1345L1793 1345" stroke="#E7E8EE"/>
<path d="M1 577L1793 577" stroke="#E7E8EE"/>
<path d="M1 1537L1793 1537" stroke="#E7E8EE"/>
<path d="M1 769L1793 769" stroke="#E7E8EE"/>
<path d="M1 1L1793 0.999922" stroke="#E7E8EE"/>
<path d="M1 1153L1793 1153" stroke="#E7E8EE"/>
<path d="M1 385L1793 385" stroke="#E7E8EE"/>
<path d="M1 1793L1793 1793" stroke="#E7E8EE"/>
<path d="M1 1025L1793 1025" stroke="#E7E8EE"/>
<path d="M1 257L1793 257" stroke="#E7E8EE"/>
<path d="M1 1409L1793 1409" stroke="#E7E8EE"/>
<path d="M1 641L1793 641" stroke="#E7E8EE"/>
<path d="M1 1601L1793 1601" stroke="#E7E8EE"/>
<path d="M1 833L1793 833" stroke="#E7E8EE"/>
<path d="M1 65L1793 64.9999" stroke="#E7E8EE"/>
<path d="M1 1217L1793 1217" stroke="#E7E8EE"/>
<path d="M1 449L1793 449" stroke="#E7E8EE"/>
<path d="M129 1L129 1793" stroke="#E7E8EE"/>
<path d="M897 1L897 1793" stroke="#E7E8EE"/>
<path d="M1665 1L1665 1793" stroke="#E7E8EE"/>
<path d="M513 1L513 1793" stroke="#E7E8EE"/>
<path d="M1281 1L1281 1793" stroke="#E7E8EE"/>
<path d="M321 1L321 1793" stroke="#E7E8EE"/>
<path d="M1089 1L1089 1793" stroke="#E7E8EE"/>
<path d="M705 1L705 1793" stroke="#E7E8EE"/>
<path d="M1473 1L1473 1793" stroke="#E7E8EE"/>
<path d="M65 1L65.0001 1793" stroke="#E7E8EE"/>
<path d="M833 1L833 1793" stroke="#E7E8EE"/>
<path d="M1601 1L1601 1793" stroke="#E7E8EE"/>
<path d="M449 1L449 1793" stroke="#E7E8EE"/>
<path d="M1217 1L1217 1793" stroke="#E7E8EE"/>
<path d="M257 1L257 1793" stroke="#E7E8EE"/>
<path d="M1025 1L1025 1793" stroke="#E7E8EE"/>
<path d="M1793 1L1793 1793" stroke="#E7E8EE"/>
<path d="M641 1L641 1793" stroke="#E7E8EE"/>
<path d="M1409 1L1409 1793" stroke="#E7E8EE"/>
<path d="M1 1L1.00008 1793" stroke="#E7E8EE"/>
<path d="M769 1L769 1793" stroke="#E7E8EE"/>
<path d="M1537 1L1537 1793" stroke="#E7E8EE"/>
<path d="M385 1L385 1793" stroke="#E7E8EE"/>
<path d="M1153 1L1153 1793" stroke="#E7E8EE"/>
<path d="M193 1L193 1793" stroke="#E7E8EE"/>
<path d="M961 1L961 1793" stroke="#E7E8EE"/>
<path d="M1729 1L1729 1793" stroke="#E7E8EE"/>
<path d="M577 1L577 1793" stroke="#E7E8EE"/>
<path d="M1345 1L1345 1793" stroke="#E7E8EE"/>
</svg>
